<?xml version="1.0" ?>
<!DOCTYPE svg  PUBLIC '-//W3C//DTD SVG 1.1//EN'  'http://www.w3.org/Graphics/SVG/1.1/DTD/svg11.dtd'>
<svg 
    enable-background="new 0.001 -0.266 32 32" 
    viewBox="0.001 -0.266 34 34" 
    width="24px" 
    height="24px" 
    overflow="visible" 
    version="1.1" 
    xml:space="preserve" 
    xmlns="http://www.w3.org/2000/svg" 
    xmlns:xlink="http://www.w3.org/1999/xlink">
    <defs/>
        <path d="M15.999,0C7.162,0,0,7.164,0,16s7.162,16,15.999,16s16-7.164,16.001-16C31.999,7.164,24.836,0,15.999,0z   M25.804,8.297c1.561,1.98,2.538,4.436,2.661,7.117c-1.807-0.383-3.513-0.57-5.104-0.57l0,0H23.35c-1.281,0-2.483,0.115-3.616,0.316  c-0.275-0.676-0.555-1.324-0.836-1.943C21.421,12.109,23.843,10.533,25.804,8.297z M15.999,3.518c2.945,0,5.646,1.029,7.784,2.744  c-1.636,1.957-3.797,3.377-6.13,4.379c-1.64-3.172-3.225-5.438-4.307-6.824C14.204,3.625,15.089,3.518,15.999,3.518z M10.486,4.818  c0.866,1.023,2.602,3.275,4.454,6.789c-3.769,1.123-7.562,1.385-9.858,1.385c-0.065,0-0.131,0-0.193,0H4.886  c-0.387,0-0.719-0.008-0.997-0.016C4.785,9.393,7.24,6.426,10.486,4.818z M3.517,16c0-0.059,0.002-0.117,0.006-0.18  c0.356,0.014,0.812,0.025,1.363,0.025h0.003c2.509-0.018,6.891-0.227,11.33-1.627c0.242,0.527,0.481,1.078,0.719,1.652  c-2.965,0.99-5.3,2.57-7.027,4.145c-1.662,1.514-2.786,3.014-3.442,4.016C4.631,21.855,3.518,19.062,3.517,16z M15.999,28.484  c-2.777,0-5.338-0.918-7.415-2.461c0.441-0.727,1.389-2.123,2.896-3.566c1.551-1.484,3.691-3.016,6.486-3.926  c0.95,2.664,1.81,5.707,2.465,9.135C19.052,28.191,17.561,28.484,15.999,28.484z M23.064,26.268c-0.633-3.1-1.43-5.895-2.304-8.389  c0.811-0.115,1.661-0.182,2.561-0.182h0.031h0.002h0.003c1.488,0,3.125,0.186,4.898,0.588C27.643,21.586,25.73,24.43,23.064,26.268z  " id="dribbble_1_"/>
</svg>